<?xml version="1.0" standalone="no"?>
<!DOCTYPE svg PUBLIC "-//W3C//DTD SVG 20010904//EN"
 "http://www.w3.org/TR/2001/REC-SVG-20010904/DTD/svg10.dtd">
<svg version="1.0" xmlns="http://www.w3.org/2000/svg"
 width="485.000000pt" height="485.000000pt" viewBox="0 0 485.000000 485.000000"
 preserveAspectRatio="xMidYMid meet">
<metadata>
Created by potrace 1.14, written by Peter Selinger 2001-2017
</metadata>
<g transform="translate(0.000000,485.000000) scale(0.100000,-0.100000)"
fill="#000000" stroke="none">
<path d="M3161 4795 c-1 -7 -353 -10 -1038 -9 -742 1 -1042 -2 -1052 -10 -11
-8 -13 -8 -8 0 6 10 -42 11 -183 2 -8 -1 -18 -6 -22 -12 -5 -7 -8 -8 -8 0 0 5
-15 9 -32 8 -18 -1 -33 -2 -33 -4 0 -1 -11 -4 -25 -5 -14 -2 -38 -7 -55 -10
-16 -3 -36 -6 -42 -7 -7 -1 -13 -5 -13 -10 0 -5 -4 -7 -9 -4 -5 3 -21 -4 -37
-16 -16 -13 -25 -16 -20 -8 4 8 1 7 -7 -2 -8 -10 -16 -15 -19 -13 -3 3 -11 -1
-18 -10 -7 -8 -17 -15 -22 -15 -5 0 -16 -7 -25 -15 -8 -8 -18 -13 -23 -10 -5
3 -11 -4 -15 -15 -3 -11 -9 -19 -13 -19 -20 3 -32 -2 -27 -11 3 -5 1 -10 -5
-10 -12 0 -40 -24 -40 -35 0 -3 -15 -21 -33 -38 -32 -32 -98 -126 -110 -159
-3 -10 -11 -18 -17 -18 -6 0 -9 -3 -6 -8 2 -4 -4 -25 -14 -47 -10 -22 -16 -43
-14 -47 3 -5 0 -8 -7 -8 -7 0 -9 -3 -6 -6 3 -4 2 -16 -4 -27 -8 -15 -8 -18 1
-12 9 6 9 2 1 -14 -7 -12 -9 -26 -6 -31 3 -5 1 -11 -4 -14 -5 -4 -8 -17 -6
-31 1 -14 -1 -25 -4 -25 -3 0 -7 -24 -8 -53 -1 -28 -4 -73 -5 -100 -2 -26 2
-49 7 -51 7 -3 7 -5 0 -5 -7 -1 -8 -85 -5 -242 3 -133 2 -243 -3 -246 -4 -2
-4 -9 -1 -15 10 -15 12 -78 3 -78 -5 0 -6 -7 -3 -15 8 -21 11 -465 3 -465 -3
0 -4 -17 0 -37 3 -21 6 -296 6 -610 0 -320 4 -573 9 -573 5 0 4 -6 -1 -12 -5
-7 -8 -60 -6 -118 6 -202 5 -247 -1 -268 -5 -13 -3 -22 3 -22 7 0 7 -8 1 -24
-5 -13 -6 -26 -3 -29 2 -3 7 -32 10 -64 7 -82 11 -118 13 -120 2 -2 3 -6 4
-10 14 -60 31 -113 38 -113 4 0 8 -7 8 -15 0 -9 8 -30 17 -48 9 -18 16 -36 15
-40 -1 -4 5 -10 13 -13 8 -3 12 -10 9 -15 -3 -5 -1 -9 4 -9 5 0 13 -10 19 -23
6 -12 21 -35 34 -50 46 -53 99 -108 99 -102 0 3 12 -7 27 -22 33 -33 85 -68
96 -65 4 1 7 -2 7 -6 0 -9 75 -49 100 -54 8 -2 17 -6 20 -10 5 -6 37 -15 85
-23 11 -2 20 -4 20 -5 0 -1 11 -3 25 -5 14 -2 38 -6 55 -9 18 -3 32 -1 37 7 5
9 8 9 8 0 0 -11 24 -13 206 -15 34 -1 66 2 73 6 6 4 11 4 11 -1 0 -10 52 -9
68 1 7 4 12 4 12 -1 0 -10 52 -9 68 1 7 4 12 4 12 -1 0 -10 193 -9 209 1 6 4
11 2 11 -5 0 -8 3 -9 13 0 8 6 16 9 19 6 7 -7 1646 -7 1658 0 5 3 10 3 10 -2
0 -4 165 -7 368 -6 322 2 417 5 417 12 0 2 65 11 95 13 8 0 20 4 25 8 11 8 54
19 69 19 5 -1 13 6 18 15 5 9 13 14 19 11 5 -4 9 -1 9 4 0 6 6 11 14 11 7 0
27 14 44 30 18 17 34 29 36 28 2 -2 32 25 67 59 34 35 60 63 56 63 -4 0 7 15
24 32 17 18 39 51 50 73 11 22 28 54 38 70 10 17 19 33 20 37 3 13 12 41 26
78 7 19 11 43 10 53 -2 9 0 17 4 17 9 0 9 -1 16 120 6 87 7 158 4 177 -1 5 -1
10 0 13 3 7 3 613 1 625 -1 6 -1 15 0 20 6 23 7 2255 1 2255 -4 0 -8 15 -9 33
-3 30 -8 66 -12 77 -1 3 -2 8 -1 13 0 4 -4 7 -10 7 -5 0 -8 4 -5 9 4 5 -4 31
-16 58 -12 26 -22 50 -23 53 -6 19 -19 46 -24 50 -3 3 -15 21 -25 40 -11 19
-27 42 -36 50 -9 8 -19 23 -23 33 -4 10 -11 15 -17 12 -5 -3 -10 -1 -10 5 0
14 -46 60 -59 60 -6 0 -14 6 -18 13 -4 8 -21 22 -38 33 -16 10 -36 24 -43 31
-8 7 -17 11 -22 8 -4 -3 -11 2 -14 11 -3 8 -10 12 -16 9 -5 -3 -10 -2 -10 3 0
5 -8 12 -17 16 -10 3 -24 9 -32 12 -9 5 -11 3 -6 -6 4 -7 -2 -6 -17 4 -13 8
-53 21 -88 28 -69 14 -317 17 -338 4 -7 -4 -12 -2 -12 4 0 6 -5 8 -11 5 -15
-10 -89 -11 -89 -2 0 5 -5 5 -10 2 -18 -11 -480 -11 -484 0 -3 7 -5 7 -5 0z"/>
</g>
</svg>
